<?xml version="1.0" encoding="UTF-8"?>
<!DOCTYPE svg PUBLIC "-//W3C//DTD SVG 1.1//EN" "http://www.w3.org/Graphics/SVG/1.1/DTD/svg11.dtd">
<svg xmlns="http://www.w3.org/2000/svg" version="1.1" width="512px" height="512px" style="shape-rendering:geometricPrecision; text-rendering:geometricPrecision; image-rendering:optimizeQuality; fill-rule:evenodd; clip-rule:evenodd" xmlns:xlink="http://www.w3.org/1999/xlink">
<g><path style="opacity:1" fill="#6e4bed" d="M 511.5,29.5 C 511.5,48.5 511.5,67.5 511.5,86.5C 465.167,86.5 418.833,86.5 372.5,86.5C 366.833,86.5 361.167,86.5 355.5,86.5C 236.833,86.5 118.167,86.5 -0.5,86.5C -0.5,67.5 -0.5,48.5 -0.5,29.5C 4.78891,13.057 16.1222,4.22367 33.5,3C 181.5,2.33333 329.5,2.33333 477.5,3C 494.878,4.22367 506.211,13.057 511.5,29.5 Z"/></g>
<g><path style="opacity:1" fill="#fbd769" d="M 41.5,34.5 C 52.3537,34.5179 56.8537,39.8513 55,50.5C 51.1085,56.3893 45.9418,57.8893 39.5,55C 32.3337,47.3418 33.0004,40.5085 41.5,34.5 Z"/></g>
<g><path style="opacity:1" fill="#86e072" d="M 84.5,34.5 C 94.8377,35.0049 99.0043,40.3383 97,50.5C 89.8796,58.7673 83.2129,58.434 77,49.5C 75.2714,42.2903 77.7714,37.2903 84.5,34.5 Z"/></g>
<g><path style="opacity:1" fill="#fbd868" d="M 123.5,34.5 C 135.25,34.7361 139.416,40.4027 136,51.5C 129.311,58.3551 122.977,58.0218 117,50.5C 116.333,47.1667 116.333,43.8333 117,40.5C 119.063,38.2659 121.229,36.2659 123.5,34.5 Z"/></g>
<g><path style="opacity:1" fill="#fc7ebe" d="M 465.5,34.5 C 474.851,35.3437 478.684,40.3437 477,49.5C 473.578,56.2957 468.411,58.129 461.5,55C 456.552,50.701 455.385,45.5343 458,39.5C 460.17,37.1769 462.67,35.5103 465.5,34.5 Z"/></g>
<g><path style="opacity:1" fill="#4628b2" d="M 167.5,37.5 C 220.168,37.3333 272.834,37.5 325.5,38C 333.089,42.5289 333.422,47.5289 326.5,53C 273.5,53.6667 220.5,53.6667 167.5,53C 162.197,47.7603 162.197,42.5936 167.5,37.5 Z"/></g>
<g><path style="opacity:1" fill="#53515e" d="M -0.5,86.5 C 118.167,86.5 236.833,86.5 355.5,86.5C 355.5,163.167 355.5,239.833 355.5,316.5C 252.166,316.333 148.833,316.5 45.5,317C 34,320.5 26.5,328 23,339.5C 21.5618,367.134 21.0618,394.8 21.5,422.5C 10.285,417.956 2.95167,409.956 -0.5,398.5C -0.5,294.5 -0.5,190.5 -0.5,86.5 Z"/></g>
<g><path style="opacity:1" fill="#474756" d="M 355.5,86.5 C 361.167,86.5 366.833,86.5 372.5,86.5C 372.5,163.167 372.5,239.833 372.5,316.5C 404.168,316.333 435.835,316.5 467.5,317C 479.764,320.93 487.597,329.097 491,341.5C 491.5,368.165 491.667,394.831 491.5,421.5C 484.123,424.195 476.456,425.195 468.5,424.5C 468.667,402.164 468.5,379.831 468,357.5C 464.833,346.333 457.667,339.167 446.5,336C 438.507,335.5 430.507,335.334 422.5,335.5C 304.166,335.333 185.833,335.5 67.5,336C 56.7623,339.071 49.5956,345.904 46,356.5C 45.832,379.337 45.332,402.004 44.5,424.5C 36.6879,424.975 29.0213,424.308 21.5,422.5C 21.0618,394.8 21.5618,367.134 23,339.5C 26.5,328 34,320.5 45.5,317C 148.833,316.5 252.166,316.333 355.5,316.5C 355.5,239.833 355.5,163.167 355.5,86.5 Z"/></g>
<g><path style="opacity:0.999" fill="#52505d" d="M 372.5,86.5 C 418.833,86.5 465.167,86.5 511.5,86.5C 511.5,190.5 511.5,294.5 511.5,398.5C 508.334,409.139 501.667,416.806 491.5,421.5C 491.667,394.831 491.5,368.165 491,341.5C 487.597,329.097 479.764,320.93 467.5,317C 435.835,316.5 404.168,316.333 372.5,316.5C 372.5,239.833 372.5,163.167 372.5,86.5 Z"/></g>
<g><path style="opacity:1" fill="#3c3b44" d="M 394.5,113.5 C 423.502,113.333 452.502,113.5 481.5,114C 485.277,116.911 486.444,120.744 485,125.5C 483.681,127.487 481.848,128.654 479.5,129C 451.167,129.667 422.833,129.667 394.5,129C 387.86,123.705 387.86,118.539 394.5,113.5 Z"/></g>
<g><path style="opacity:1" fill="#a6a4bd" d="M 45.5,121.5 C 53.2679,120.601 57.1012,123.934 57,131.5C 54.983,136.924 51.1497,138.758 45.5,137C 40.208,131.835 40.208,126.668 45.5,121.5 Z"/></g>
<g><path style="opacity:1" fill="#00a9ef" d="M 78.5,121.5 C 116.501,121.333 154.501,121.5 192.5,122C 197.833,127 197.833,132 192.5,137C 154.5,137.667 116.5,137.667 78.5,137C 73.4648,133.987 72.2981,129.82 75,124.5C 76.1451,123.364 77.3117,122.364 78.5,121.5 Z"/></g>
<g><path style="opacity:1" fill="#3c3b44" d="M 394.5,148.5 C 423.502,148.333 452.502,148.5 481.5,149C 486.833,154 486.833,159 481.5,164C 452.5,164.667 423.5,164.667 394.5,164C 389.465,160.987 388.298,156.82 391,151.5C 392.145,150.364 393.312,149.364 394.5,148.5 Z"/></g>
<g><path style="opacity:1" fill="#a6a4bd" d="M 46.5,155.5 C 54.4709,155.635 57.9709,159.635 57,167.5C 52,172.833 47,172.833 42,167.5C 40.4742,162.239 41.9742,158.239 46.5,155.5 Z"/></g>
<g><path style="opacity:1" fill="#08a6e9" d="M 78.5,155.5 C 99.1694,155.333 119.836,155.5 140.5,156C 145.224,158.435 146.724,162.269 145,167.5C 143.891,169.815 142.057,171.315 139.5,172C 119.5,172.667 99.5,172.667 79.5,172C 71.8523,166.961 71.519,161.461 78.5,155.5 Z"/></g>
<g><path style="opacity:1" fill="#f8d663" d="M 168.5,155.5 C 188.503,155.333 208.503,155.5 228.5,156C 235.353,157.915 237.186,162.081 234,168.5C 232.681,170.487 230.848,171.654 228.5,172C 208.833,172.667 189.167,172.667 169.5,172C 163.456,169.068 161.956,164.568 165,158.5C 166.518,157.837 167.685,156.837 168.5,155.5 Z"/></g>
<g><path style="opacity:1" fill="#3c3b44" d="M 394.5,183.5 C 422.835,183.333 451.169,183.5 479.5,184C 485.419,186.258 487.086,190.425 484.5,196.5C 483.5,197.333 482.5,198.167 481.5,199C 452.5,199.667 423.5,199.667 394.5,199C 391.187,197.434 389.521,194.767 389.5,191C 390.299,187.896 391.966,185.396 394.5,183.5 Z"/></g>
<g><path style="opacity:1" fill="#a7a5be" d="M 45.5,190.5 C 55.0428,189.531 58.5428,193.531 56,202.5C 50.9186,207.986 46.2519,207.653 42,201.5C 40.6624,196.96 41.8291,193.293 45.5,190.5 Z"/></g>
<g><path style="opacity:1" fill="#f87eb9" d="M 114.5,189.5 C 141.169,189.333 167.835,189.5 194.5,190C 200.507,191.672 202.673,195.505 201,201.5C 199.363,203.81 197.196,205.31 194.5,206C 167.167,206.667 139.833,206.667 112.5,206C 105.491,199.556 106.158,194.056 114.5,189.5 Z"/></g>
<g><path style="opacity:1" fill="#84df6d" d="M 226.5,189.5 C 253.169,189.333 279.835,189.5 306.5,190C 312.583,192.388 314.417,196.555 312,202.5C 310.681,204.487 308.848,205.654 306.5,206C 279.167,206.667 251.833,206.667 224.5,206C 217.363,199.468 218.029,193.968 226.5,189.5 Z"/></g>
<g><path style="opacity:1" fill="#3c3b44" d="M 394.5,218.5 C 423.169,218.333 451.835,218.5 480.5,219C 485.738,222.274 486.904,226.774 484,232.5C 483.25,233.126 482.416,233.626 481.5,234C 452.167,234.667 422.833,234.667 393.5,234C 387.867,228.366 388.2,223.199 394.5,218.5 Z"/></g>
<g><path style="opacity:1" fill="#a6a4bd" d="M 46.5,222.5 C 48.5273,222.338 50.5273,222.505 52.5,223C 58.791,227.57 59.1243,232.57 53.5,238C 44.8338,239.664 41.0004,236.164 42,227.5C 43.1932,225.503 44.6932,223.836 46.5,222.5 Z"/></g>
<g><path style="opacity:1" fill="#f8d663" d="M 112.5,222.5 C 161.168,222.333 209.834,222.5 258.5,223C 265.357,224.939 267.19,229.106 264,235.5C 262.421,237.041 260.587,238.208 258.5,239C 210.5,239.667 162.5,239.667 114.5,239C 109.947,237.775 107.613,234.775 107.5,230C 108.546,227.114 110.213,224.614 112.5,222.5 Z"/></g>
<g><path style="opacity:1" fill="#3c3b44" d="M 394.5,253.5 C 423.169,253.333 451.835,253.5 480.5,254C 485.738,257.274 486.904,261.774 484,267.5C 482.352,268.717 480.519,269.55 478.5,270C 450.833,270.667 423.167,270.667 395.5,270C 388.106,264.88 387.772,259.38 394.5,253.5 Z"/></g>
<g><path style="opacity:1" fill="#a7a5bd" d="M 45.5,257.5 C 55.0428,256.531 58.5428,260.531 56,269.5C 50.9186,274.986 46.2519,274.653 42,268.5C 40.6624,263.96 41.8291,260.293 45.5,257.5 Z"/></g>
<g><path style="opacity:1" fill="#84df6d" d="M 80.5,256.5 C 109.502,256.333 138.502,256.5 167.5,257C 173.178,258.857 175.345,262.691 174,268.5C 172.363,270.81 170.196,272.31 167.5,273C 137.833,273.667 108.167,273.667 78.5,273C 71.3701,266.417 72.0368,260.917 80.5,256.5 Z"/></g>
<g><path style="opacity:1" fill="#08a6ea" d="M 191.5,256.5 C 202.505,256.333 213.505,256.5 224.5,257C 232.43,260.65 233.43,265.65 227.5,272C 226.5,272.333 225.5,272.667 224.5,273C 213.167,273.667 201.833,273.667 190.5,273C 185.931,270.459 184.431,266.625 186,261.5C 187.406,259.256 189.239,257.59 191.5,256.5 Z"/></g>
<g><path style="opacity:1" fill="#3c3b44" d="M 395.5,288.5 C 423.502,288.333 451.502,288.5 479.5,289C 485.542,291.837 487.042,296.337 484,302.5C 482.581,303.46 481.081,304.293 479.5,305C 451.833,305.667 424.167,305.667 396.5,305C 390.493,303.328 388.327,299.495 390,293.5C 391.73,291.598 393.563,289.931 395.5,288.5 Z"/></g>
<g><path style="opacity:1" fill="#01a9ef" d="M 78.5,290.5 C 108.835,290.333 139.168,290.5 169.5,291C 176.154,296.049 176.154,301.049 169.5,306C 138.833,306.667 108.167,306.667 77.5,306C 71.9636,300.404 72.2969,295.237 78.5,290.5 Z"/></g>
<g><path style="opacity:1" fill="#a6a4bd" d="M 46.5,290.5 C 55.5523,290.618 58.7189,294.951 56,303.5C 50.967,307.779 46.3003,307.446 42,302.5C 40.4742,297.239 41.9742,293.239 46.5,290.5 Z"/></g>
<g><path style="opacity:0.999" fill="#ff6b5c" d="M 422.5,335.5 C 422.742,354.853 418.742,373.186 410.5,390.5C 406.287,384.813 400.62,381.313 393.5,380C 382.5,379.333 371.5,379.333 360.5,380C 359.667,380.833 358.833,381.667 358,382.5C 357.5,405.498 357.333,428.498 357.5,451.5C 340.445,461.352 322.112,467.518 302.5,470C 216.501,470.5 130.501,470.667 44.5,470.5C 44.5,455.167 44.5,439.833 44.5,424.5C 45.332,402.004 45.832,379.337 46,356.5C 49.5956,345.904 56.7623,339.071 67.5,336C 185.833,335.5 304.166,335.333 422.5,335.5 Z"/></g>
<g><path style="opacity:1" fill="#fe5450" d="M 422.5,335.5 C 430.507,335.334 438.507,335.5 446.5,336C 457.667,339.167 464.833,346.333 468,357.5C 468.5,379.831 468.667,402.164 468.5,424.5C 468.967,446.233 468.467,467.9 467,489.5C 462.058,501.091 453.225,507.257 440.5,508C 318.167,508.667 195.833,508.667 73.5,508C 51.7827,505.09 42.116,492.59 44.5,470.5C 130.501,470.667 216.501,470.5 302.5,470C 322.112,467.518 340.445,461.352 357.5,451.5C 356.845,455.355 358.179,458.188 361.5,460C 364.5,460.667 367.5,460.667 370.5,460C 372.324,459.34 373.657,458.173 374.5,456.5C 375.493,447.682 375.827,438.682 375.5,429.5C 377.833,429.5 380.167,429.5 382.5,429.5C 387.576,438.65 392.409,447.983 397,457.5C 399.251,461.126 402.418,462.293 406.5,461C 411.766,458.772 413.933,454.938 413,449.5C 408.446,442.226 404.279,434.726 400.5,427C 404.979,424.182 408.479,420.348 411,415.5C 414.279,407.019 414.112,398.685 410.5,390.5C 418.742,373.186 422.742,354.853 422.5,335.5 Z"/></g>
<g><path style="opacity:1" fill="#fffcfc" d="M 108.5,379.5 C 123.17,379.333 137.837,379.5 152.5,380C 157.343,384.38 157.677,389.046 153.5,394C 142.839,394.5 132.172,394.667 121.5,394.5C 121.5,400.833 121.5,407.167 121.5,413.5C 127.509,413.334 133.509,413.501 139.5,414C 144.398,417.522 144.731,421.522 140.5,426C 134.175,426.5 127.842,426.666 121.5,426.5C 121.5,432.833 121.5,439.167 121.5,445.5C 131.839,445.334 142.172,445.5 152.5,446C 157.343,450.38 157.677,455.046 153.5,460C 138.167,460.667 122.833,460.667 107.5,460C 106.584,459.626 105.75,459.126 105,458.5C 104.333,433.167 104.333,407.833 105,382.5C 106.145,381.364 107.312,380.364 108.5,379.5 Z"/></g>
<g><path style="opacity:1" fill="#fffbfb" d="M 166.5,379.5 C 178.886,379.106 191.22,379.606 203.5,381C 211.775,383.607 216.941,389.107 219,397.5C 219.708,405.211 218.375,412.545 215,419.5C 212.403,422.202 209.57,424.536 206.5,426.5C 210.466,434.293 214.632,441.96 219,449.5C 219.667,451.5 219.667,453.5 219,455.5C 214.208,462.417 208.875,463.083 203,457.5C 198.422,448.01 193.589,438.676 188.5,429.5C 186.257,428.526 183.924,428.192 181.5,428.5C 181.808,438.22 181.474,447.887 180.5,457.5C 176.608,460.326 172.275,461.159 167.5,460C 165.667,459.5 164.5,458.333 164,456.5C 163.333,431.833 163.333,407.167 164,382.5C 165.045,381.627 165.878,380.627 166.5,379.5 Z"/></g>
<g><path style="opacity:1" fill="#fffdfd" d="M 231.5,379.5 C 243.886,379.106 256.22,379.606 268.5,381C 276.026,383.193 280.86,388.026 283,395.5C 286.03,408.763 282.197,419.263 271.5,427C 275.532,434.897 279.699,442.73 284,450.5C 284.399,455.462 282.232,458.962 277.5,461C 275.167,461.667 272.833,461.667 270.5,461C 264.198,450.899 258.531,440.399 253.5,429.5C 250.914,428.52 248.247,428.187 245.5,428.5C 245.666,438.172 245.5,447.839 245,457.5C 239.667,461.5 234.333,461.5 229,457.5C 228.333,432.5 228.333,407.5 229,382.5C 230.045,381.627 230.878,380.627 231.5,379.5 Z"/></g>
<g><path style="opacity:1" fill="#fffdfc" d="M 312.5,379.5 C 324.719,377.754 334.885,381.421 343,390.5C 344.562,392.957 345.562,395.624 346,398.5C 346.667,413.167 346.667,427.833 346,442.5C 343.723,453.065 337.223,459.232 326.5,461C 315.111,463.198 305.277,460.364 297,452.5C 295.392,449.618 294.059,446.618 293,443.5C 292.059,426.78 292.393,410.113 294,393.5C 298.321,386.339 304.488,381.673 312.5,379.5 Z"/></g>
<g><path style="opacity:1" fill="#fffcfc" d="M 410.5,390.5 C 414.112,398.685 414.279,407.019 411,415.5C 408.479,420.348 404.979,424.182 400.5,427C 404.279,434.726 408.446,442.226 413,449.5C 413.933,454.938 411.766,458.772 406.5,461C 402.418,462.293 399.251,461.126 397,457.5C 392.409,447.983 387.576,438.65 382.5,429.5C 380.052,428.527 377.385,428.194 374.5,428.5C 374.5,437.833 374.5,447.167 374.5,456.5C 373.657,458.173 372.324,459.34 370.5,460C 367.5,460.667 364.5,460.667 361.5,460C 358.179,458.188 356.845,455.355 357.5,451.5C 357.333,428.498 357.5,405.498 358,382.5C 358.833,381.667 359.667,380.833 360.5,380C 371.5,379.333 382.5,379.333 393.5,380C 400.62,381.313 406.287,384.813 410.5,390.5 Z"/></g>
<g><path style="opacity:1" fill="#ffb4ac" d="M 194.5,395.5 C 190.167,395.5 185.833,395.5 181.5,395.5C 181.5,402.167 181.5,408.833 181.5,415.5C 180.509,408.687 180.175,401.687 180.5,394.5C 185.363,394.181 190.03,394.514 194.5,395.5 Z"/></g>
<g><path style="opacity:1" fill="#ff6c5d" d="M 194.5,395.5 C 197.263,395.744 199.429,397.077 201,399.5C 201.667,403.167 201.667,406.833 201,410.5C 199.833,412.333 198.333,413.833 196.5,415C 191.511,415.499 186.511,415.666 181.5,415.5C 181.5,408.833 181.5,402.167 181.5,395.5C 185.833,395.5 190.167,395.5 194.5,395.5 Z"/></g>
<g><path style="opacity:1" fill="#ff7061" d="M 245.5,394.5 C 251.762,393.872 257.762,394.705 263.5,397C 265.888,399.306 266.888,402.139 266.5,405.5C 266.756,410.08 264.756,413.246 260.5,415C 255.511,415.499 250.511,415.666 245.5,415.5C 245.5,408.5 245.5,401.5 245.5,394.5 Z"/></g>
<g><path style="opacity:1" fill="#ff6d5e" d="M 314.5,395.5 C 320.995,393.927 325.828,395.927 329,401.5C 329.903,414.881 329.57,428.214 328,441.5C 324.975,445.921 320.808,447.421 315.5,446C 313,444.833 311.167,443 310,440.5C 309.333,427.167 309.333,413.833 310,400.5C 311.059,398.341 312.559,396.674 314.5,395.5 Z"/></g>
<g><path style="opacity:1" fill="#ffaaa2" d="M 388.5,395.5 C 384.167,395.5 379.833,395.5 375.5,395.5C 375.5,402.167 375.5,408.833 375.5,415.5C 374.509,408.687 374.175,401.687 374.5,394.5C 379.363,394.181 384.03,394.514 388.5,395.5 Z"/></g>
<g><path style="opacity:1" fill="#ff6c5d" d="M 388.5,395.5 C 391.263,395.744 393.429,397.077 395,399.5C 395.667,403.167 395.667,406.833 395,410.5C 393.622,413.108 391.455,414.608 388.5,415C 384.179,415.499 379.846,415.666 375.5,415.5C 375.5,408.833 375.5,402.167 375.5,395.5C 379.833,395.5 384.167,395.5 388.5,395.5 Z"/></g>
<g><path style="opacity:1" fill="#ffa09b" d="M 382.5,429.5 C 380.167,429.5 377.833,429.5 375.5,429.5C 375.827,438.682 375.493,447.682 374.5,456.5C 374.5,447.167 374.5,437.833 374.5,428.5C 377.385,428.194 380.052,428.527 382.5,429.5 Z"/></g>
</svg>
